<svg width="80" height="90" viewBox="0 0 80 90" fill="none" xmlns="http://www.w3.org/2000/svg">
<rect width="79.7753" height="89.7472" rx="7.97753" fill="url(#paint0_linear_340_8097)"/>
<path d="M52.2966 38.503L51.3105 39.9892L50.0893 33.8822L49.1551 36.5077C49.2986 36.9182 49.5457 37.6924 49.7372 38.6255L49.9172 38.1239L50.6964 42.0181L52.7107 39.5032H59.0048V38.503H52.2966Z" fill="white"/>
<path d="M39.7913 27.6965C40.1604 27.516 40.546 27.37 40.9435 27.259L40.569 22.3866C40.549 22.1251 40.2669 21.94 40.0194 22.0211L39.5113 22.1906C39.2062 22.2921 39.0017 22.5762 39.0017 22.8972C39.0017 22.9382 39.0052 22.9792 39.0117 23.0202L39.7913 27.6965Z" fill="white"/>
<path d="M40.7055 32.0017C41.7507 32.0017 42.7763 31.6421 43.593 30.989C44.3776 30.3614 45.3163 29.9423 46.3069 29.7773L46.8315 29.6898C45.7833 28.6391 44.3366 28.001 42.7573 28.001C40.8815 28.001 39.1197 28.9181 38.0445 30.4554C37.9275 30.6229 37.818 30.7945 37.714 30.968C38.5351 31.6356 39.5538 32.0017 40.6235 32.0017H40.7055Z" fill="white"/>
<path d="M29.3236 28.3541L31.3824 29.3833C32.0925 29.7383 32.6141 30.3614 32.8532 31.1011C33.1922 31.039 33.5388 31.0015 33.8948 31.0015H33.9603C34.3519 31.0015 34.745 31.0405 35.128 31.1171L36.3713 31.3656C36.6038 30.861 36.8833 30.3754 37.2049 29.9124L36.1702 28.8777C35.7487 28.4561 35.4911 27.8965 35.4451 27.3014L35.0695 22.4181C35.0485 22.1465 34.7675 21.946 34.5089 22.013L33.4593 22.275C33.1892 22.3436 33.0007 22.5851 33.0007 22.8641C33.0007 22.9142 33.0067 22.9632 33.0187 23.0107L33.8328 26.2667C33.9799 26.8568 33.7033 27.4584 33.1592 27.7305C32.7206 27.95 32.204 27.9035 31.811 27.6085L30.5073 26.6308C30.2202 26.4168 29.7731 26.4923 29.5741 26.7908L29.098 27.5044C29.034 27.6015 29 27.7135 29 27.83C29 28.053 29.124 28.2541 29.3236 28.3541Z" fill="white"/>
<path d="M32.6689 38.5026C34.2571 38.5026 35.5008 37.2374 35.5008 35.6216V35.3505C35.5008 34.3059 35.6689 33.2822 35.9959 32.3105L34.9318 32.0975C34.6127 32.034 34.2856 32.0015 33.9601 32.0015H33.8946C31.2621 32.0015 29.1083 34.1358 29.0037 36.7993L29.3203 37.1158C30.2149 38.01 31.4041 38.5026 32.6689 38.5026Z" fill="white"/>
<path d="M43.7811 27.0839L44.9548 23.5628C44.9868 23.4677 45.0029 23.3677 45.0029 23.2677C45.0029 22.9547 44.8473 22.6641 44.5868 22.4906L43.9442 22.062C43.7326 21.921 43.4161 22.0575 43.3746 22.309L42.5909 27.0114C42.6469 27.0099 42.7015 27.0009 42.7575 27.0009C43.1055 27.0009 43.4461 27.0329 43.7811 27.0839Z" fill="white"/>
<path d="M48.3828 25.9641C48.4608 25.8706 48.5034 25.7526 48.5034 25.631C48.5034 25.4325 48.3933 25.2545 48.2158 25.1655L48.0468 25.0809C47.7042 24.9094 47.2586 25.0344 47.0556 25.36L45.6309 27.6394C45.9514 27.7899 46.257 27.9679 46.548 28.1655L48.3828 25.9641Z" fill="white"/>
<path d="M40.5019 40.5031C41.3305 40.5031 42.0022 39.8314 42.0022 39.0028C42.0022 38.1743 41.3305 37.5026 40.5019 37.5026C39.6734 37.5026 39.0017 38.1743 39.0017 39.0028C39.0017 39.8314 39.6734 40.5031 40.5019 40.5031Z" fill="white"/>
<path d="M45.5161 36.7443L44.903 39.5028H42.9511C42.7186 40.6425 41.7089 41.5031 40.5012 41.5031C39.1225 41.5031 38.0008 40.3814 38.0008 39.0027C38.0008 37.6239 39.1225 36.5022 40.5012 36.5022C41.7084 36.5022 42.7186 37.3629 42.9511 38.5026H44.1008L45.4881 32.2595L47.5494 41.0195L49.1547 36.5072C49.0862 36.3107 49.0402 36.1932 49.0382 36.1882L49.0102 36.0897L48.4216 32.7546C48.2806 31.9565 47.9765 31.2248 47.5534 30.5837L46.4707 30.7643C45.6481 30.9013 44.869 31.2494 44.2174 31.7704C43.2237 32.5641 41.9765 33.0017 40.7048 33.0017H40.6222C39.391 33.0017 38.2168 32.6011 37.2472 31.8705C36.7596 32.9591 36.5005 34.1378 36.5005 35.3506V35.6216C36.5005 37.762 34.7812 39.5028 32.6684 39.5028C31.3407 39.5028 30.0819 39.0547 29.0643 38.23C29.3203 40.5464 30.324 42.7333 31.9558 44.4906C34.1301 46.8325 36.8476 48.6993 39.8146 49.89L42.3195 50.8937C42.7551 51.0677 43.2837 51.0362 43.6508 50.7372L43.8988 50.5346C46.8873 48.0887 49.0532 44.6841 50.0028 40.942C49.9973 40.1409 49.8838 39.3382 49.7373 38.6246L47.4559 44.9877L45.5161 36.7443Z" fill="white"/>
<defs>
<linearGradient id="paint0_linear_340_8097" x1="-1.9286e-07" y1="4.60242" x2="87.732" y2="19.7758" gradientUnits="userSpaceOnUse">
<stop stop-color="#0EBE7E"/>
<stop offset="1" stop-color="#07D9AD"/>
</linearGradient>
</defs>
</svg>
