<svg width="80" height="90" viewBox="0 0 80 90" fill="none" xmlns="http://www.w3.org/2000/svg">
<rect width="79.7753" height="89.7472" rx="7.97753" fill="url(#paint0_linear_340_8117)"/>
<path d="M47.2453 30.371C46.6696 28.6064 47.0735 26.708 47.6929 24.9582C47.7651 24.7544 47.742 24.527 47.6265 24.3411C47.4953 24.1291 47.2643 24 47.0152 24H35.5265C35.2773 24 35.0464 24.1291 34.9151 24.3411C34.7839 24.5531 34.772 24.8176 34.8835 25.0402C35.6809 26.6341 35.8451 28.5033 35.3517 30.1997C34.8766 31.6989 34.181 33.0654 33.5079 34.3863C33.3007 34.7929 33.0977 35.1935 32.9022 35.5926L36.1407 37.212C39.3075 38.7954 43.2238 38.7954 46.3906 37.212L49.637 35.5889C49.444 35.1961 49.2436 34.8021 49.0394 34.4025C48.3897 33.1325 47.7173 31.8179 47.2453 30.371ZM41.2655 36.9846C40.8686 36.9846 40.5468 36.6628 40.5468 36.2659C40.5468 35.8689 40.8686 35.5472 41.2655 35.5472C41.6625 35.5472 41.9842 35.8689 41.9842 36.2659C41.9842 36.6628 41.6625 36.9846 41.2655 36.9846Z" fill="white"/>
<path d="M29.7187 29.7974H30.9064L30.6959 30.008C30.4151 30.2887 30.4151 30.7435 30.6959 31.0243C30.9766 31.305 31.4314 31.305 31.7121 31.0243L33.1496 29.5869C33.4303 29.3061 33.4303 28.8513 33.1496 28.5706L31.7121 27.1332C31.4314 26.8524 30.9766 26.8524 30.6959 27.1332C30.4151 27.4139 30.4151 27.8687 30.6959 28.1494L30.9064 28.36H29.7187C29.3215 28.36 29 28.6814 29 29.0787C29 29.4759 29.3215 29.7974 29.7187 29.7974Z" fill="white"/>
<path d="M52.8125 28.36H51.6248L51.8353 28.1494C52.1161 27.8687 52.1161 27.4139 51.8353 27.1332C51.5546 26.8524 51.0998 26.8524 50.819 27.1332L49.3816 28.5706C49.1009 28.8513 49.1009 29.3061 49.3816 29.5869L50.819 31.0243C51.0998 31.305 51.5546 31.305 51.8353 31.0243C52.1161 30.7435 52.1161 30.2887 51.8353 30.008L51.6248 29.7974H52.8125C53.2097 29.7974 53.5312 29.476 53.5312 29.0787C53.5312 28.6815 53.2097 28.36 52.8125 28.36Z" fill="white"/>
<path d="M50.235 36.8971L47.0338 38.4976C45.2518 39.3883 43.2578 39.8592 41.266 39.8592C39.2741 39.8592 37.2801 39.3883 35.4981 38.4976L32.306 36.9015C32.01 37.6002 31.7525 38.307 31.5761 39.0486C31.3901 39.8298 31.2706 40.6202 31.2015 41.4134C34.6096 40.6692 37.6102 41.6551 40.3367 44.382C40.6202 44.6115 41.9124 44.6122 42.2001 44.377C44.1216 42.4546 46.9644 40.4343 51.3411 41.42C51.2721 40.6245 51.1529 39.8318 50.9663 39.0485C50.7887 38.3016 50.5309 37.5942 50.235 36.8971Z" fill="white"/>
<path d="M43.2115 45.3986C43.0828 45.5273 42.9021 45.6269 42.7034 45.7133V47.8132C42.7034 48.2101 43.0252 48.5319 43.4221 48.5319H49.8904C50.194 48.5319 50.4723 48.3388 50.5685 48.0507C51.1197 46.4006 51.3695 44.6358 51.3785 42.9147C47.5125 41.9163 45.0316 43.5785 43.2115 45.3986Z" fill="white"/>
<path d="M31.1646 42.897C31.1717 44.6241 31.421 46.395 31.9742 48.0509C32.0704 48.3389 32.3486 48.532 32.6523 48.532H39.1101C39.507 48.532 39.8288 48.2102 39.8288 47.8133V45.7134C39.6301 45.627 39.4493 45.5274 39.3207 45.3987C37.4647 43.5427 34.9812 41.9191 31.1646 42.897Z" fill="white"/>
<defs>
<linearGradient id="paint0_linear_340_8117" x1="2.19221e-06" y1="4.98595" x2="79.7753" y2="89.7472" gradientUnits="userSpaceOnUse">
<stop stop-color="#FF484C"/>
<stop offset="1" stop-color="#FF6C60"/>
</linearGradient>
</defs>
</svg>
