<svg width="80" height="90" viewBox="0 0 80 90" fill="none" xmlns="http://www.w3.org/2000/svg">
<rect width="79.7753" height="89.7472" rx="7.97753" fill="url(#paint0_linear_340_8111)"/>
<path d="M41.1265 26C34.2 26 27.9186 29.7673 23.2837 35.8864C22.9054 36.3877 22.9054 37.0881 23.2837 37.5894C27.9186 43.7159 34.2 47.4832 41.1265 47.4832C48.053 47.4832 54.3343 43.7159 58.9693 37.5968C59.3475 37.0955 59.3475 36.3951 58.9693 35.8938C54.3343 29.7673 48.053 26 41.1265 26ZM41.6233 44.3057C37.0254 44.5932 33.2285 40.8259 33.5177 36.2477C33.755 32.473 36.8326 29.4134 40.6296 29.1775C45.2275 28.89 49.0245 32.6573 48.7352 37.2356C48.4905 41.0029 45.4129 44.0624 41.6233 44.3057ZM41.3934 40.8112C38.9165 40.966 36.8697 38.9386 37.0329 36.4762C37.1589 34.4414 38.8201 32.7974 40.8669 32.6647C43.3438 32.5098 45.3906 34.5373 45.2275 36.9996C45.094 39.0418 43.4328 40.6859 41.3934 40.8112Z" fill="white"/>
<defs>
<linearGradient id="paint0_linear_340_8111" x1="0" y1="0" x2="72.7949" y2="84.7612" gradientUnits="userSpaceOnUse">
<stop offset="0.286458" stop-color="#FE7F44"/>
<stop offset="1" stop-color="#FFCF68"/>
</linearGradient>
</defs>
</svg>
