<svg width="80" height="90" viewBox="0 0 80 90" fill="none" xmlns="http://www.w3.org/2000/svg">
<rect width="79.7753" height="89.7472" rx="7.97753" fill="url(#paint0_linear_340_8128)"/>
<path d="M51.5904 23.1705C48.9891 20.7471 46.0444 20.7504 43.8433 21.2942C41.6504 21.8358 39.3496 21.8358 37.1568 21.2942C34.9557 20.7504 32.011 20.7471 29.4095 23.1705C24.4803 27.7622 28.4468 35.9646 29.6406 37.3774C30.8344 38.7903 30.8728 40.674 31.72 44.5201C32.5673 48.3663 33.6454 52.0161 35.8019 51.4667C37.9584 50.9173 38.5361 48.2486 39.0752 44.6772C39.1123 44.4315 39.1509 44.2011 39.1908 43.9846C39.4649 42.4997 41.535 42.4997 41.8091 43.9846C41.8489 44.201 41.8877 44.4315 41.9248 44.6772C42.4639 48.2486 43.0416 50.9173 45.1981 51.4667C47.3546 52.0161 48.4328 48.3663 49.28 44.5201C50.1272 40.674 50.1657 38.7903 51.3595 37.3774C52.5533 35.9646 56.5197 27.7622 51.5904 23.1705ZM36.535 24.9544C36.4753 25.4056 36.0687 25.7226 35.6263 25.6638C35.4678 25.6438 31.9524 25.2483 30.9648 29.1595C30.8705 29.5324 30.5412 29.7802 30.18 29.7802C30.113 29.7802 30.045 29.7717 29.9773 29.7539C29.5436 29.6402 29.2825 29.1896 29.3941 28.7477C30.4763 24.4619 34.0832 23.785 35.8392 24.0252C36.2831 24.086 36.5945 24.502 36.535 24.9544Z" fill="white"/>
<defs>
<linearGradient id="paint0_linear_340_8128" x1="4.98595" y1="5.98315" x2="73.7921" y2="89.7472" gradientUnits="userSpaceOnUse">
<stop stop-color="#2753F3"/>
<stop offset="1" stop-color="#765AFC"/>
</linearGradient>
</defs>
</svg>
