<svg width="24" height="24" viewBox="0 0 24 24" fill="none" xmlns="http://www.w3.org/2000/svg">
<path d="M11.9826 2.50002C9.44404 2.50457 7.13922 3.50491 5.43757 5.13109L4.06945 3.76298C3.49026 3.18382 2.5 3.59401 2.5 4.41308V9.5484C2.5 10.0561 2.9116 10.4678 3.41935 10.4678H8.55468C9.37375 10.4678 9.78393 9.47749 9.20478 8.8983L7.60548 7.29901C8.78777 6.19199 10.3176 5.57878 11.9429 5.56476C15.4824 5.53419 18.4659 8.39855 18.4353 12.0555C18.4062 15.5245 15.5938 18.4355 12 18.4355C10.4246 18.4355 8.9356 17.8732 7.7622 16.8436C7.58051 16.6842 7.30612 16.6939 7.13519 16.8648L5.61588 18.3841C5.42926 18.5707 5.43849 18.875 5.63435 19.0519C7.31887 20.5735 9.55122 21.5 12 21.5C17.2467 21.5 21.5 17.2467 21.5 12.0001C21.5 6.75942 17.2232 2.49063 11.9826 2.50002Z" fill="white"/>
</svg>
